# xmcd
#
# Track frame offsets:
#	150
#	16725
#	38250
#	55053
#	70750
#	85608
#	102050
#	127033
#	140780
#	165613
#	180420
#	197885
#	210955
#	228588
#	249605
#	272713
#	288378
#	306860
#
# Disc length: 4345 seconds
#
# Revision: 1
# Processed by: cddbd v1.5.2PL0 Copyright (c) Steve Scherf et al.
# Submitted via: audiograbber 1.83.01
#
DISCID=f110f712
DTITLE=Paul DeLay - Take It From The Turnaround
DYEAR=1992
DGENRE=Blues
TTITLE0=Merry Way
TTITLE1=Ain't That Right 
TTITLE2=The Other One
TTITLE3=Great Round World 
TTITLE4=Chalk And Roll
TTITLE5=Silly Smile
TTITLE6=Why Can't You Love Me
TTITLE7=Every Woman I Get 
TTITLE8=Oat Bran 
TTITLE9=Worn Out Shoe 
TTITLE10=Second-Hand Moke
TTITLE11=I Can't Quit You No
TTITLE12=No Use Worryin' 
TTITLE13=What's The Big Idea
TTITLE14=I Missed You Bad
TTITLE15=Don't Feel Nothin'
TTITLE16=Just This One
TTITLE17=The Prisoner's Song 
EXTD=
EXTT0=
EXTT1=
EXTT2=
EXTT3=
EXTT4=
EXTT5=
EXTT6=
EXTT7=
EXTT8=
EXTT9=
EXTT10=
EXTT11=
EXTT12=
EXTT13=
EXTT14=
EXTT15=
EXTT16=
EXTT17=
PLAYORDER=
